PathFileType	4	(X/Y/Z)	/Users/mathieubourgeois/Desktop/Analyse/Traitement/Sujet_04/Data/Transformed_Sujet_04_velo_100.trc
DataRate	CameraRate	NumFrames	NumMarkers	Units	OrigDataRate	OrigDataStartFrame	OrigNumFrames
120.000000	120.000000	4	36	mm	120.000000	1704	1948
Frame#	Time	RFHD			RANE			STRN			LANI			LKNE			T10			RHUM			RWRB			C7			LFWT			LTOE			RTOE			LWRA			LBWT			RBWT			RFWT			LKNI			RKNI			RKNE			LANE			RANI			LHEE			RHEE			LHUM			LRAD			RRAD			RWRA			LWRB			LFHD			LBHD			RBHD			RSHO			LSHO			CLAV			LCAR			RCAR			
		X1	Y1	Z1	X2	Y2	Z2	X3	Y3	Z3	X4	Y4	Z4	X5	Y5	Z5	X6	Y6	Z6	X7	Y7	Z7	X8	Y8	Z8	X9	Y9	Z9	X10	Y10	Z10	X11	Y11	Z11	X12	Y12	Z12	X13	Y13	Z13	X14	Y14	Z14	X15	Y15	Z15	X16	Y16	Z16	X17	Y17	Z17	X18	Y18	Z18	X19	Y19	Z19	X20	Y20	Z20	X21	Y21	Z21	X22	Y22	Z22	X23	Y23	Z23	X24	Y24	Z24	X25	Y25	Z25	X26	Y26	Z26	X27	Y27	Z27	X28	Y28	Z28	X29	Y29	Z29	X30	Y30	Z30	X31	Y31	Z31	X32	Y32	Z32	X33	Y33	Z33	X34	Y34	Z34	X35	Y35	Z35	X36	Y36	Z36	

1705	14.2	313.7838439941406	1454.308471679688	57.05572509765619	-303.7896423339844	296.4544067382812	133.4024505615234	-59.52923965454101	1217.338134765625	-29.87889862060555	-114.827507019043	585.4937744140625	-117.8745422363282	73.40319824218753	964.8461303710938	-234.3730773925782	-194.7681121826172	1447.998168945312	-22.5126304626466	88.68457031249997	1073.8095703125	187.1453094482421	315.4625549316406	907.411865234375	228.0992126464843	75.85118103027344	1497.094482421875	-21.73963928222664	-236.5813293457031	1178.582397460938	-150.531219482422	51.84182357788088	492.0008544921875	-161.365463256836	-110.5541305541992	162.4623107910156	66.3262023925781	322.6491394042969	945.4165649414062	-213.8355712890625	-403.8670959472656	1270.176879882812	-85.47238922119152	-412.9957580566406	1258.716674804688	47.42653656005847	-255.7150115966797	1176.952758789062	132.8799743652343	86.58669281005861	927.2763671875	-117.0602569580079	-110.6709671020508	676.1849365234375	52.99097061157221	-109.060287475586	714.7613525390625	167.794937133789	-155.4253845214843	578.3941650390625	-208.8775939941407	-269.8574523925781	299.097900390625	42.63652801513666	-207.6957855224609	561.4300537109375	-152.739242553711	-354.34130859375	299.1140441894531	91.51445007324213	80.25268554687503	1077.932495117188	-254.2026977539063	120.1274871826172	1100.341430664062	-312.9526062011719	132.0906829833984	1093.638793945312	239.5084533691406	326.7290954589844	915.3106079101562	153.0935516357422	285.5997314453126	891.341552734375	-261.6393737792969	312.1862182617188	1455.175048828125	-76.59754180908207	190.0270690917969	1567.664184570312	-61.37302780151375	194.9506988525391	1556.747802734375	77.91552734374993	98.00304412841795	1422.482666015625	135.0457153320312	100.2054290771485	1418.724487304688	-190.9029846191407	66.04776000976562	1329.562255859375	-30.16420173645027	399.8040161132813	917.25048828125	-294.3359985351562	402.8156433105468	933.6392822265625	236.6518707275391	
1706	14.20833333333333	313.6054992675781	1453.848510742188	56.73462677001947	-314.8722839355469	306.2830810546875	132.7188262939453	-60.14585876464843	1217.387451171875	-30.28415870666512	-103.4642028808594	575.142578125	-118.8838653564454	73.70904541015628	962.1712036132812	-232.5899810791016	-195.0300140380859	1448.16845703125	-23.28700065612804	88.4970779418945	1073.774169921875	187.1857452392578	315.3660888671875	907.4715576171875	228.1238708496093	75.68815612792969	1497.029296875	-22.05197334289559	-236.4907989501953	1178.681396484375	-151.2616577148439	67.09964752197267	485.0757141113281	-160.1869201660157	-124.9487457275391	169.4853973388672	67.25505828857419	322.6355285644531	945.2791748046875	-213.61572265625	-404.1037902832031	1269.937866210938	-86.57913970947277	-413.6950073242188	1258.740356445312	46.39223861694323	-256.4652404785156	1177.396240234375	132.1080780029296	87.04903411865236	924.202880859375	-115.2935333251954	-108.4182586669922	678.914306640625	53.06725692749018	-105.4265060424805	717.4613037109375	167.5985565185546	-142.9375610351562	567.3157958984375	-210.6547393798829	-281.0419921875	308.5979919433594	42.11816024780268	-194.3688812255859	548.64208984375	-154.9186096191407	-365.4585876464844	310.1573181152344	90.50799560546869	80.11469268798831	1077.838745117188	-254.0896911621094	119.9724426269532	1100.199829101562	-312.8916015625001	131.922866821289	1093.6962890625	239.4443817138672	326.4322509765625	915.4166870117188	153.208251953125	285.6288452148438	890.970703125	-261.1706848144531	311.9264526367188	1454.7060546875	-76.90971374511723	189.9478149414062	1567.387329101562	-61.68000030517586	194.9277496337891	1556.498901367188	77.64024353027337	97.5641403198242	1422.32275390625	134.783233642578	100.1548538208008	1418.654418945312	-191.0733489990235	65.66996002197266	1329.512817382812	-30.55222702026375	399.7652893066407	917.2569580078125	-294.3060607910156	402.6992492675781	933.758056640625	236.6838073730469	
1707	14.21666666666667	313.3103942871094	1453.390991210938	56.53934097290033	-325.3345336914062	318.1719970703125	132.4271545410156	-60.77976608276366	1217.403686523438	-30.62264823913582	-90.11691284179686	563.5059204101562	-121.7008438110352	73.54766845703128	957.766845703125	-230.9641876220704	-195.3965911865234	1448.1826171875	-24.02614974975597	88.29499053955075	1073.705688476562	187.2241973876953	315.2916564941406	907.5859375	228.0968017578125	75.38608551025391	1496.924682617188	-22.15358543396004	-236.4096984863281	1178.530883789062	-152.1079864501954	79.27883148193361	477.9201049804688	-160.0440673828125	-138.6791839599609	176.8732604980469	67.52152252197263	322.5809631347656	945.1776733398438	-213.5648803710938	-404.4001159667969	1269.300415039062	-87.74088287353527	-414.4402770996094	1258.749755859375	45.24181365966784	-257.2371826171875	1177.806640625	131.3455657958983	86.71180725097658	919.8876342773438	-113.4598007202149	-105.0739364624023	682.228271484375	53.20359420776362	-100.7283248901367	720.9064331054688	167.4429473876953	-130.966323852539	555.1002197265625	-212.566879272461	-291.4949035644531	319.5111083984375	41.82368087768549	-183.5021820068359	535.760986328125	-157.6732025146485	-375.8869018554688	323.2690734863281	90.08029174804682	80.00347900390628	1077.67578125	-253.8265991210938	119.8243408203125	1100.052124023438	-312.7639465332032	131.7339935302734	1093.684936523438	239.4300231933593	325.971923828125	915.5745849609375	153.3419342041015	285.5782470703126	890.8529663085938	-261.0664978027344	311.5533752441406	1454.307373046875	-77.09668731689457	189.7063751220703	1567.1005859375	-61.7633361816407	194.7652740478516	1556.185913085938	77.5757980346679	96.94848632812499	1422.11572265625	134.718765258789	100.036003112793	1418.52099609375	-191.1129150390626	65.32502746582031	1329.3876953125	-30.70317077636726	399.6410827636719	917.2453002929688	-294.3397827148438	402.6188964843749	933.8843383789062	236.6459350585938	
1708	14.225	312.9573669433594	1452.919189453125	56.46947860717768	-334.6964111328125	331.4190673828125	132.3732757568359	-61.55702972412109	1217.3193359375	-30.89378356933602	-87.16428375244139	551.7356567382812	-120.1841125488282	72.71889495849612	951.6541748046875	-229.4915924072266	-195.8835601806641	1448.021606445312	-24.7710475921632	88.03143310546872	1073.5869140625	187.3488006591796	315.24072265625	907.7123413085938	228.0214385986328	74.93807220458984	1496.765258789062	-22.01967048645028	-236.3488311767578	1178.02490234375	-152.9241333007814	91.9348831176758	467.5137939453125	-159.2446594238282	-151.2353515625	185.3825988769531	68.11357116699216	322.4995727539062	945.0469360351562	-213.5620574951172	-404.791748046875	1268.296630859375	-89.02648162841808	-415.3633728027344	1258.241088867188	43.95138549804675	-258.0033569335938	1178.111206054688	130.5536193847655	86.33826446533205	912.9967651367188	-112.5891418457032	-95.36855316162109	686.117431640625	50.96610641479487	-95.08660125732423	725.1137084960938	167.389663696289	-119.6229019165039	541.8475952148438	-214.5534362792969	-300.8773803710938	331.8885498046875	41.79146194458002	-172.7807159423828	521.84423828125	-160.1692199707032	-385.3055114746094	337.8329162597656	90.02761840820307	79.79006195068362	1077.536865234375	-253.6182708740235	119.6498107910157	1099.891479492188	-312.5971069335938	131.5265045166015	1093.634521484375	239.4699096679687	325.147216796875	915.74853515625	153.5846862792968	285.5152587890626	890.7164306640625	-260.9692077636719	311.0562133789062	1453.911376953125	-77.11839294433598	189.3359985351562	1566.825561523438	-61.62852478027352	194.5290374755859	1555.830688476562	77.70359802246087	96.15977478027342	1421.929077148438	134.7641448974609	99.82418060302737	1418.333740234375	-190.9943389892579	64.87519073486328	1329.076782226562	-30.74223136901863	399.4842529296876	917.2351684570312	-294.4596557617188	402.5610961914062	934.0364990234375	236.516845703125	
